<?xml version="1.0" standalone="no"?>
<!DOCTYPE svg PUBLIC "-//W3C//DTD SVG 20010904//EN"
 "http://www.w3.org/TR/2001/REC-SVG-20010904/DTD/svg10.dtd">
<svg version="1.0" xmlns="http://www.w3.org/2000/svg"
 width="256.000000pt" height="256.000000pt" viewBox="0 0 256.000000 256.000000"
 preserveAspectRatio="xMidYMid meet">
<metadata>
Created by potrace 1.14, written by Peter Selinger 2001-2017
</metadata>
<g transform="translate(0.000000,256.000000) scale(0.100000,-0.100000)"
fill="#000000" stroke="none">
<path d="M1065 2511 c-247 -45 -464 -154 -644 -326 -95 -91 -148 -156 -214
-266 -45 -74 -121 -249 -130 -299 -3 -14 -10 -43 -15 -65 -33 -126 -38 -380
-9 -514 54 -249 153 -439 322 -619 189 -201 445 -336 720 -379 65 -10 305 -10
370 0 440 69 810 364 976 777 21 52 40 106 43 120 3 14 13 59 22 100 19 82 25
335 11 428 -18 112 -82 306 -129 390 -10 17 -28 49 -39 70 -69 122 -238 300
-366 385 -37 25 -104 63 -148 85 -113 56 -206 87 -360 118 -77 15 -312 12
-410 -5z"/>
</g>
</svg>
